<svg xmlns="http://www.w3.org/2000/svg" xmlns:xlink="http://www.w3.org/1999/xlink" viewBox="0,0,256,256" width="100px" height="100px" fill-rule="nonzero"><g fill="#ffffff" fill-rule="nonzero" stroke="none" stroke-width="1" stroke-linecap="butt" stroke-linejoin="miter" stroke-miterlimit="10" stroke-dasharray="" stroke-dashoffset="0" font-family="none" font-weight="none" font-size="none" text-anchor="none" style="mix-blend-mode: normal"><g transform="scale(5.12,5.12)"><path d="M20.4375,9.22266c-3.949,0.372 -8.49805,2.60156 -8.49805,2.60156c0,0 -5.93945,6.56242 -5.93945,18.85742v2.97461l0.45313,0.29492c1.215,0.791 7.39094,4.74023 9.71094,4.74023h0.52734l2.67383,-3.88672c1.578,0.38 3.52377,0.69336 5.63477,0.69336c2.111,0 4.05577,-0.31336 5.63477,-0.69336l2.67383,3.88672h0.52734c2.32,0 8.49594,-3.94923 9.71094,-4.74023l0.45313,-0.29492v-2.97461c0,-12.258 -5.93945,-18.85742 -5.93945,-18.85742c0,0 -4.76605,-2.28456 -8.49805,-2.60156l-1.07227,2.0332c-0.756,-0.124 -2.01023,-0.2832 -3.49023,-0.2832c-1.481,0 -2.73423,0.1592 -3.49023,0.2832zM19.88086,10.30859l1.08984,2.06641c0,0 1.7323,-0.40039 4.0293,-0.40039c2.297,0 4.0293,0.40039 4.0293,0.40039l1.08984,-2.06641c3.514,0.484 7.31836,2.32617 7.31836,2.32617c0,0 5.5625,6.44287 5.5625,18.04688v2.43164c0,0 -7.02311,4.57813 -9.16211,4.57813l-2.07812,-3.01953c1.29,-0.578 3.05078,-1.58203 3.05078,-1.58203l-0.64258,-0.49805c0,0 -4.11502,1.90625 -9.16602,1.90625c-5.051,0 -9.16601,-1.90625 -9.16601,-1.90625l-0.64453,0.49805c0,0 1.75978,1.00403 3.05078,1.58203l-2.07813,3.01953c-2.141,0 -9.16406,-4.57812 -9.16406,-4.57812v-2.43164c0,-11.604 5.5625,-18.04687 5.5625,-18.04687c0,0 3.80436,-1.84117 7.31836,-2.32617zM18.67383,21.66016c-1.869,0 -3.38477,1.70178 -3.38477,3.80078c0,2.099 1.51577,3.80078 3.38477,3.80078c1.868,0 3.38377,-1.70078 3.38477,-3.80078c0,-2.099 -1.51577,-3.80078 -3.38477,-3.80078zM31.32617,21.66016c-1.869,0 -3.38477,1.70178 -3.38477,3.80078c0,2.099 1.51577,3.80078 3.38477,3.80078c1.869,0 3.38477,-1.70078 3.38477,-3.80078c0,-2.099 -1.51577,-3.80078 -3.38477,-3.80078z"></path></g></g></svg>